<svg width="150" height="88" xmlns="http://www.w3.org/2000/svg"><path fill="#EEE" d="M0 0h150v88H0z"/><path fill="#B8C5CC" d="M49.333 0h2v88h-2z"/><path d="M22.885 41.192c.288 0 .568-.024.84-.072a2.54 2.54 0 00.732-.24c.224-.112.412-.256.564-.432.16-.176.264-.392.312-.648h1.116v8.4h-1.5v-5.928h-2.064v-1.08zM103.529 48.284h-5.736c.008-.696.176-1.304.504-1.824a4.61 4.61 0 011.344-1.356c.272-.2.556-.392.852-.576.296-.192.568-.396.816-.612.248-.216.452-.448.612-.696.16-.256.244-.548.252-.876 0-.152-.02-.312-.06-.48a1.166 1.166 0 00-.204-.48 1.161 1.161 0 00-.432-.372c-.184-.104-.424-.156-.72-.156-.272 0-.5.056-.684.168a1.21 1.21 0 00-.432.444 2.364 2.364 0 00-.24.66 5.27 5.27 0 00-.084.828h-1.368c0-.464.06-.892.18-1.284.128-.4.316-.744.564-1.032.248-.288.548-.512.9-.672.36-.168.776-.252 1.248-.252.512 0 .94.084 1.284.252.344.168.62.38.828.636.216.256.368.536.456.84.088.296.132.58.132.852 0 .336-.052.64-.156.912a3.042 3.042 0 01-.42.756 4.41 4.41 0 01-.6.624 8.996 8.996 0 01-.696.54c-.24.168-.48.328-.72.48-.24.152-.464.304-.672.456-.2.152-.376.312-.528.48-.152.16-.256.332-.312.516h4.092v1.224z" fill="#90A5AF"/></svg>