<svg xmlns="http://www.w3.org/2000/svg" width="196" height="35" viewBox="0 0 196 35" fill="none"><path fill="#CCDCFF" d="M178.52 29c6.616 0 11.98-5.15 11.98-11.504 0-3.365-1.504-6.392-3.902-8.496L170.5 26.042c2.123 1.839 4.935 2.958 8.02 2.958ZM77.922 29c6.616 0 11.98-5.15 11.98-11.504 0-3.365-1.504-6.392-3.902-8.496L69.902 26.042C72.025 27.88 74.838 29 77.922 29Z"/><path fill="#fff" d="M0 34.327V.673h16.224c4.169 0 7.28.817 9.335 2.452 2.055 1.603 3.082 3.718 3.082 6.346 0 1.73-.438 3.253-1.314 4.568-.846 1.281-2.055 2.307-3.626 3.076-1.54.738-3.384 1.106-5.529 1.106l.907-2.307c2.235 0 4.184.368 5.846 1.105 1.662.705 2.945 1.747 3.852 3.125.936 1.346 1.405 2.997 1.405 4.952 0 2.917-1.118 5.192-3.354 6.827-2.205 1.603-5.438 2.404-9.698 2.404H0Zm8.882-6.875h7.523c1.54 0 2.704-.273 3.49-.817.815-.577 1.223-1.443 1.223-2.597 0-1.153-.408-2.003-1.223-2.548-.786-.576-1.95-.865-3.49-.865H8.248v-6.586h6.798c1.51 0 2.643-.273 3.398-.818.756-.545 1.133-1.362 1.133-2.452 0-1.09-.377-1.89-1.133-2.404-.755-.544-1.888-.817-3.398-.817H8.882v19.904ZM34.83 34.327V.673h8.972V26.78h15.136v7.548H34.83ZM116.189 35c-2.508 0-4.834-.417-6.979-1.25-2.145-.865-4.003-2.083-5.574-3.654-1.541-1.57-2.749-3.413-3.626-5.529-.876-2.147-1.314-4.503-1.314-7.067s.438-4.904 1.314-7.02c.877-2.147 2.1-4.006 3.671-5.576 1.571-1.57 3.429-2.773 5.574-3.606C111.431.433 113.802 0 116.37 0c2.991 0 5.665.529 8.021 1.587 2.357 1.057 4.306 2.58 5.846 4.567l-5.71 5.48c-1.087-1.25-2.265-2.179-3.534-2.788-1.239-.64-2.629-.961-4.17-.961-1.359 0-2.598.224-3.716.673a7.648 7.648 0 0 0-2.855 1.97c-.785.834-1.405 1.844-1.858 3.03-.423 1.153-.634 2.468-.634 3.942 0 1.41.211 2.708.634 3.894.453 1.186 1.073 2.212 1.858 3.077a8.586 8.586 0 0 0 2.81 1.971c1.118.449 2.341.673 3.671.673a11.61 11.61 0 0 0 3.897-.673c1.269-.48 2.553-1.282 3.852-2.404l5.03 6.683c-1.812 1.378-3.912 2.436-6.299 3.173-2.387.737-4.728 1.106-7.024 1.106Zm5.393-5.529V16.78h7.93V30.72l-7.93-1.25ZM135.201 34.327V.673h8.973V26.78h15.136v7.548h-24.109Z"/><path fill="#fff" fill-rule="evenodd" d="M78 29c6.351 0 11.5-5.149 11.5-11.5S84.351 6 78 6s-11.5 5.149-11.5 11.5S71.649 29 78 29Zm0 6c9.665 0 17.5-7.835 17.5-17.5S87.665 0 78 0 60.5 7.835 60.5 17.5 68.335 35 78 35ZM178.5 29c6.351 0 11.5-5.149 11.5-11.5S184.851 6 178.5 6 167 11.149 167 17.5 172.149 29 178.5 29Zm0 6c9.665 0 17.5-7.835 17.5-17.5S188.165 0 178.5 0 161 7.835 161 17.5 168.835 35 178.5 35Z" clip-rule="evenodd"/><path fill="#004BED" d="M178.478 14.206a4.34 4.34 0 0 1 1.033-1.295c1.556-1.322 3.964-1.192 5.366.305 1.114 1.188 1.389 2.6.957 4.176-.333 1.22-.967 2.271-1.738 3.237-1.247 1.561-2.763 2.793-4.4 3.874-.363.24-.734.466-1.106.69-.055.032-.155.041-.207.01-1.882-1.118-3.642-2.41-5.117-4.083-.884-1.003-1.617-2.11-2.054-3.407-.362-1.076-.431-2.158.023-3.219.591-1.38 1.622-2.224 3.052-2.433 1.799-.261 3.195.45 4.145 2.08.01.016.02.029.046.065ZM78.061 14.206a4.341 4.341 0 0 1 1.033-1.295c1.556-1.322 3.964-1.192 5.366.305 1.114 1.188 1.389 2.6.957 4.176-.333 1.22-.967 2.271-1.737 3.237-1.247 1.561-2.764 2.793-4.401 3.874-.363.24-.734.466-1.105.69-.056.032-.156.041-.208.01-1.882-1.118-3.642-2.41-5.117-4.083-.884-1.003-1.617-2.11-2.053-3.407-.363-1.076-.432-2.158.022-3.219.59-1.38 1.622-2.224 3.052-2.433 1.8-.261 3.195.45 4.145 2.08.01.016.02.029.046.065Z"/></svg>