<svg xmlns="http://www.w3.org/2000/svg" viewBox="0 0 150 50"><path fill="#EEE" d="M0 0h150v50H0V0Z"/><path fill="#DCE0E2" stroke="#B8C5CC" stroke-width=".5" d="M27 11.25h96c7.594 0 13.75 6.156 13.75 13.75S130.594 38.75 123 38.75H27c-7.594 0-13.75-6.156-13.75-13.75S19.406 11.25 27 11.25Z"/><path fill="#B8C5CC" d="M20 25a7 7 0 0 1 7-7h14a7 7 0 1 1 0 14H27a7 7 0 0 1-7-7ZM103.5 24h-43a1.5 1.5 0 1 0 0 3h43a1.5 1.5 0 0 0 0-3ZM130 25.5a4.5 4.5 0 1 0-9 0 4.5 4.5 0 0 0 9 0ZM118 25.5a4.5 4.5 0 1 0-9 0 4.5 4.5 0 0 0 9 0Z"/></svg>