<svg xmlns="http://www.w3.org/2000/svg" viewBox="0 0 875.93 118"><path fill="#000" opacity="0.7" d="M229 20.08h13.11l17.33 68.09h-3.58l18.74-68.09h13.86l17.55 68.3h-3.68l17.55-68.3h13.21l-22.32 75.35H296.8l-17.44-62.67h3.24l-18.41 62.67h-13.86l-21.34-75.35h.01ZM343.26 95.43V20.08h26c5.99 0 10.95 1.02 14.89 3.03 3.93 2.02 6.88 4.74 8.83 8.13 1.95 3.4 2.92 7.15 2.92 11.27 0 3.54-.86 7.03-2.59 10.46-1.73 3.43-4.53 6.27-8.39 8.51-3.86 2.24-9.08 3.36-15.65 3.36h-13.65v30.58h-12.35Zm12.35-40.66h13.65c4.83 0 8.37-1.1 10.62-3.3 2.24-2.2 3.36-5.18 3.36-8.95s-1.11-6.94-3.36-9.1c-2.24-2.17-5.78-3.25-10.62-3.25h-13.65v24.61ZM461 96.18c-5.71 0-10.76-1.27-15.17-3.8s-7.85-6.11-10.35-10.74-3.74-10-3.74-16.16 1.24-11.6 3.74-16.16c2.49-4.56 5.93-8.1 10.35-10.63 4.4-2.53 9.46-3.8 15.17-3.8 3.47 0 6.63.37 9.47 1.09 2.85.72 5.39 1.82 7.59 3.3 2.2 1.48 4.12 3.36 5.74 5.64 1.62 2.27 2.97 4.97 4.06 8.07l-11.81 3.8c-1.37-3.82-3.33-6.7-5.85-8.62-2.52-1.92-5.6-2.88-9.21-2.88-3.33 0-6.23.78-8.73 2.33s-4.43 3.84-5.79 6.83c-1.37 3.01-2.06 6.66-2.06 11.01s.69 7.92 2.06 10.95c1.37 3.03 3.3 5.35 5.79 6.94 2.49 1.59 5.4 2.38 8.73 2.38 4.19 0 7.61-1.14 10.29-3.41 2.66-2.27 4.58-5.36 5.74-9.27l11.47 2.71c-1.08 3.75-2.8 7.2-5.14 10.3-2.34 3.1-5.34 5.57-8.99 7.37-3.65 1.81-8.11 2.71-13.38 2.71l.03.03ZM526.76 96.18c-5.64 0-10.7-1.27-15.23-3.8-4.51-2.53-8.09-6.11-10.73-10.74-2.64-4.63-3.95-10-3.95-16.16s1.35-11.6 4.06-16.16c2.71-4.56 6.37-8.1 11-10.63 4.62-2.53 9.74-3.8 15.38-3.8s10.86 1.27 15.44 3.8 8.23 6.07 10.94 10.63c2.71 4.56 4.06 9.93 4.06 16.16s-1.4 11.53-4.17 16.16c-2.78 4.63-6.51 8.2-11.21 10.74-4.7 2.53-9.9 3.8-15.59 3.8Zm0-10.72c3.1 0 6.05-.73 8.83-2.23 2.78-1.48 5.05-3.7 6.82-6.66 1.76-2.96 2.65-6.65 2.65-11.06s-.86-8.18-2.59-11.12c-1.73-2.92-3.95-5.11-6.65-6.56-2.71-1.44-5.61-2.17-8.73-2.17s-5.99.72-8.67 2.17c-2.68 1.45-4.84 3.63-6.5 6.56-1.66 2.92-2.5 6.63-2.5 11.12s.79 8.1 2.38 11.06c1.59 2.96 3.69 5.19 6.33 6.66 2.64 1.48 5.51 2.23 8.61 2.23h.01ZM569.97 95.43V35.68h12.35v12.47c.95-2.53 2.42-4.78 4.44-6.77a23.02 23.02 0 0 1 6.99-4.71c2.64-1.16 5.29-1.74 7.97-1.74 4.55 0 8.54.99 11.97 2.98 3.43 1.99 6.1 4.87 8.02 8.62 1.92 3.75 2.88 8.31 2.88 13.66v35.24h-12.24V63.12c0-5.42-1.37-9.68-4.12-12.8-2.75-3.1-6.36-4.66-10.83-4.66-2.89 0-5.47.79-7.74 2.38-2.27 1.59-4.06 3.78-5.36 6.56-1.3 2.78-1.95 5.98-1.95 9.6v31.23h-12.39ZM640.27 95.43V35.68h12.35v12.47c.94-2.53 2.43-4.78 4.44-6.77a23.02 23.02 0 0 1 6.99-4.71c2.64-1.16 5.29-1.74 7.96-1.74 4.55 0 8.54.99 11.97 2.98 3.42 1.99 6.1 4.87 8.02 8.62 1.92 3.75 2.88 8.31 2.88 13.66v35.24h-12.24V63.12c0-5.42-1.37-9.68-4.12-12.8-2.75-3.1-6.36-4.66-10.83-4.66-2.89 0-5.47.79-7.74 2.38-2.27 1.59-4.06 3.78-5.36 6.56-1.3 2.78-1.95 5.98-1.95 9.6v31.23h-12.39ZM738.29 96.18c-4.84 0-9.22-.76-13.17-2.27-3.93-1.52-7.29-3.65-10.08-6.39a28.241 28.241 0 0 1-6.39-9.6c-1.48-3.65-2.23-7.65-2.23-11.98 0-4.7.85-8.95 2.55-12.74 1.69-3.8 4-7.07 6.94-9.81 2.92-2.75 6.3-4.84 10.12-6.29 3.82-1.44 7.84-2.17 12.03-2.17 3.75 0 7.19.51 10.29 1.52 3.1 1.02 5.79 2.43 8.06 4.23 2.27 1.81 4.02 3.91 5.26 6.29 1.23 2.38 1.85 4.95 1.85 7.7 0 3.84-1.11 7.01-3.36 9.54-2.24 2.53-5.16 4.52-8.77 5.97-3.61 1.44-7.58 2.43-11.91 2.92-4.33.51-8.63.65-12.89.44-.72-.07-1.62-.13-2.71-.17-1.08-.04-2.04-.07-2.88-.11-.83-.04-1.28-.06-1.35-.06.51 2.38 1.64 4.54 3.41 6.45 1.76 1.92 3.99 3.41 6.67 4.5 2.66 1.09 5.53 1.62 8.56 1.62 2.45 0 4.89-.44 7.32-1.3 2.42-.86 4.64-2.06 6.65-3.58 2.02-1.52 3.72-3.25 5.09-5.21l9.21 6.62c-2.38 3.18-5.08 5.8-8.06 7.86-3 2.06-6.19 3.58-9.59 4.56-3.4.97-6.94 1.47-10.62 1.47h-.01Zm-10.61-32.51c2.66 0 5.39-.13 8.12-.38 2.75-.25 5.29-.72 7.64-1.41 2.34-.69 4.24-1.64 5.68-2.88 1.44-1.23 2.17-2.82 2.17-4.77 0-1.67-.52-3.16-1.56-4.5-1.04-1.34-2.51-2.4-4.39-3.2-1.88-.79-4.07-1.19-6.61-1.19-3.75 0-7.12.83-10.08 2.5s-5.29 3.87-6.99 6.62c-1.69 2.75-2.62 5.71-2.76 8.89 1.01.07 2.27.14 3.79.21 1.52.07 3.17.11 4.98.11h.01ZM802.73 96.18c-5.71 0-10.76-1.27-15.17-3.8s-7.85-6.11-10.35-10.74c-2.49-4.63-3.74-10-3.74-16.16s1.24-11.6 3.74-16.16c2.5-4.56 5.94-8.1 10.35-10.63 4.4-2.53 9.46-3.8 15.17-3.8 3.47 0 6.63.37 9.47 1.09 2.85.72 5.39 1.82 7.59 3.3 2.2 1.48 4.12 3.36 5.74 5.64 1.62 2.27 2.97 4.97 4.06 8.07l-11.81 3.8c-1.37-3.82-3.33-6.7-5.85-8.62-2.52-1.92-5.6-2.88-9.21-2.88-3.33 0-6.23.78-8.73 2.33s-4.43 3.84-5.79 6.83c-1.37 3.01-2.06 6.66-2.06 11.01s.69 7.92 2.06 10.95c1.37 3.03 3.3 5.35 5.79 6.94 2.49 1.59 5.4 2.38 8.73 2.38 4.19 0 7.61-1.14 10.29-3.41 2.66-2.27 4.58-5.36 5.74-9.27l11.47 2.71c-1.08 3.75-2.8 7.2-5.15 10.3-2.34 3.1-5.34 5.57-8.99 7.37-3.65 1.81-8.11 2.71-13.38 2.71l.03.03ZM862.64 96.18c-4.55 0-8.35-1.55-11.38-4.66-3.03-3.1-4.55-7.34-4.55-12.69V45.77h-9.21V35.68h36.17v10.09h-14.52v33.82c0 2.03.52 3.47 1.57 4.33 1.04.86 2.18 1.3 3.41 1.3 1.09 0 2.06-.18 2.92-.54.86-.37 1.69-.93 2.49-1.74l6.39 7.7c-2.02 1.95-4.07 3.36-6.17 4.23-2.1.86-4.48 1.3-7.15 1.3h.03Zm-20.7-55.82V35.7c1.52 0 2.69-.44 3.52-1.3.83-.86 1.24-2.06 1.24-3.58v-9.98h12.46v7.92c0 1.02-.25 2-.76 2.98-.51.97-1.21 1.81-2.11 2.5s-1.89 1.17-2.97 1.47l-11.38 4.66ZM50.66 90.24 25.01 75.58c-.62-.36-.99-1.01-.99-1.72V44.13c0-.71.38-1.36.99-1.72l26.98-15.44S97.1 53.83 131.06.93c-38.73 36.83-71.69 5.83-78-.36-.64-.62-1.62-.75-2.39-.31L.99 28.67c-.62.36-.99 1.01-.99 1.72v57.2c0 .71.38 1.36.99 1.72l49.36 28.23c.92.53 2.09.24 2.67-.64C86.86 66.08 131.98 91 131.98 91c-39.02-35.75-72.66-7.07-78.94-1.05-.64.61-1.61.74-2.38.29Z"/><path d="M130.96 1.08C97.12 51.9 52 26.98 52 26.98c39.02 35.75 72.66 7.07 78.94 1.05.64-.61 1.61-.74 2.38-.29l25.65 14.66c.62.36.99 1.01.99 1.72v29.73c0 .71-.38 1.36-.99 1.72l-26.98 15.44s-45-27.01-78.96 25.9c38.73-36.83 71.59-5.69 77.91.51.64.62 1.62.75 2.39.31l49.65-28.4c.62-.36.99-1.01.99-1.72V30.38c0-.71-.38-1.36-.99-1.72L133.63.43c-.92-.53-2.09-.24-2.67.64Z" fill="#000"/></svg>
