<svg width="150" height="88" fill="none" xmlns="http://www.w3.org/2000/svg"><path d="M0 0h150v88H0V0Z" fill="#EEE"/><path d="M112 0h2v88h-2V0ZM74 0h2v88h-2V0Z" fill="#B8C5CC"/><path d="M35.47 41.408c.287 0 .567-.024.84-.072.254-.042.5-.123.731-.24.224-.112.412-.256.564-.432.16-.176.264-.392.312-.648h1.116v8.4h-1.5v-5.928H35.47v-1.08ZM97.037 48.5h-5.736c.008-.696.176-1.304.504-1.824a4.61 4.61 0 0 1 1.344-1.356c.272-.2.556-.392.852-.576.296-.192.568-.396.816-.612.248-.216.452-.448.612-.696.16-.256.244-.548.252-.876 0-.152-.02-.312-.06-.48-.03-.173-.1-.337-.204-.48a1.163 1.163 0 0 0-.432-.372c-.184-.104-.424-.156-.72-.156-.272 0-.5.056-.684.168-.176.104-.32.252-.432.444-.112.207-.193.43-.24.66-.05.273-.078.55-.084.828h-1.368c0-.464.06-.892.18-1.284.128-.4.316-.744.564-1.032.248-.288.548-.512.9-.672.36-.168.776-.252 1.248-.252.512 0 .94.084 1.284.252.344.168.62.38.828.636.216.256.368.536.456.84.088.296.132.58.132.852 0 .336-.052.64-.156.912-.103.27-.245.525-.42.756a4.41 4.41 0 0 1-.6.624 8.986 8.986 0 0 1-.696.54c-.24.168-.48.328-.72.48-.24.152-.464.304-.672.456-.2.152-.376.312-.528.48-.152.16-.256.332-.312.516h4.092V48.5ZM132.032 43.6c-.222.04-.447.056-.672.048l.008 1.016c.267-.008.534 0 .8.024.243.02.48.083.7.186.203.098.376.25.5.438.139.236.206.507.192.78a1.377 1.377 0 0 1-.462 1.11 1.716 1.716 0 0 1-1.146.39 1.44 1.44 0 0 1-1.206-.51 1.903 1.903 0 0 1-.378-1.278H129c.001.409.069.814.2 1.2.118.345.309.66.558.924.256.264.567.467.912.594.782.27 1.63.28 2.418.03.344-.111.665-.284.948-.51.27-.217.491-.49.648-.8a2.555 2.555 0 0 0-.162-2.46 1.732 1.732 0 0 0-1.122-.714v-.024c.372-.116.691-.36.9-.69a2.1 2.1 0 0 0 .288-1.11 2.025 2.025 0 0 0-.834-1.68 2.818 2.818 0 0 0-.852-.42 3.306 3.306 0 0 0-.966-.144 2.867 2.867 0 0 0-1.14.216 2.473 2.473 0 0 0-.858.6c-.241.265-.43.572-.558.906a3.467 3.467 0 0 0-.228 1.134h1.368a2.092 2.092 0 0 1 .072-.63 1.74 1.74 0 0 1 .258-.552 1.235 1.235 0 0 1 1.062-.534c.344-.014.68.102.942.324a1.108 1.108 0 0 1 .366.864c.007.227-.049.452-.162.648a1.173 1.173 0 0 1-.426.414 1.88 1.88 0 0 1-.6.21Z" fill="#90A5AF"/></svg>