<svg width="150" height="88" fill="none" xmlns="http://www.w3.org/2000/svg"><path d="M150 0H0v88h150V0Z" fill="#EEE"/><path d="M76 0h-2v88h2V0Z" fill="#B8C5CC"/><path d="M34 41.408c.287 0 .567-.024.84-.072.254-.042.5-.123.731-.24.224-.112.412-.256.564-.432.16-.176.264-.392.312-.648h1.116v8.4h-1.5v-5.928H34v-1.08Zm81.567 7.092h-5.736c.008-.696.176-1.304.504-1.824a4.602 4.602 0 0 1 1.344-1.356c.272-.2.556-.392.852-.576.296-.192.568-.396.816-.612.248-.216.452-.448.612-.696.16-.256.244-.548.252-.876 0-.152-.02-.312-.06-.48a1.173 1.173 0 0 0-.204-.48 1.16 1.16 0 0 0-.432-.372c-.184-.104-.424-.156-.72-.156-.272 0-.5.056-.684.168-.176.104-.32.252-.432.444-.112.207-.193.43-.24.66a5.23 5.23 0 0 0-.084.828h-1.368c0-.464.06-.892.18-1.284.128-.4.316-.744.564-1.032.248-.288.548-.512.9-.672.36-.168.776-.252 1.248-.252.512 0 .94.084 1.284.252.344.168.62.38.828.636.216.256.368.536.456.84.088.296.132.58.132.852 0 .336-.052.64-.156.912-.103.27-.245.525-.42.756-.179.227-.38.436-.6.624a8.91 8.91 0 0 1-.696.54c-.24.168-.48.328-.72.48-.24.152-.464.304-.672.456-.2.152-.376.312-.528.48-.152.16-.256.332-.312.516h4.092V48.5Z" fill="#90A5AF"/></svg>