<svg width="105" height="26" viewBox="0 0 105 26" fill="none" xmlns="http://www.w3.org/2000/svg">
	<g clip-path="url(#clip0_0_157)">
		<path d="M45.8027 5.8604V14.9843C45.8027 16.9978 44.6938 18.2996 42.8894 18.2996C41.8708 18.2996 41.2633 17.8356 40.762 17.178C40.2787 17.8379 39.6531 18.2996 38.6707 18.2996C36.8662 18.2996 35.7573 16.9978 35.7573 14.9843V5.8604C35.7573 5.71851 35.8477 5.62842 35.9899 5.62842H37.1146C37.2569 5.62842 37.3472 5.71851 37.3472 5.8604V15.0541C37.3472 16.1599 37.8125 16.7816 38.6684 16.7816C39.4543 16.7816 39.9738 16.1577 39.9738 15.0541V5.8604C39.9738 5.71851 40.0641 5.62842 40.2064 5.62842H41.3311C41.4733 5.62842 41.5637 5.71851 41.5637 5.8604V15.0541C41.5637 16.1599 42.117 16.7816 42.8849 16.7816C43.743 16.7816 44.1902 16.1577 44.1902 15.0541V5.8604C44.1902 5.71851 44.2805 5.62842 44.4228 5.62842H45.5475C45.7079 5.62842 45.7982 5.71851 45.7982 5.8604H45.8027Z" fill="#0C3148"/>
		<path d="M47.7334 17.8538V8.72991C47.7334 6.78847 48.8942 5.43262 50.7348 5.43262C52.5754 5.43262 53.8085 6.78622 53.8085 8.72991V10.5475C53.8085 12.3651 52.6116 13.6128 50.7529 13.6128H49.3414V17.8538C49.3414 18.0137 49.251 18.1038 49.1088 18.1038H47.966C47.8237 18.1038 47.7334 18.0137 47.7334 17.8538ZM50.6987 12.115C51.6269 12.115 52.1825 11.5452 52.1825 10.5835V8.66009C52.1825 7.62631 51.6291 6.94838 50.7529 6.94838C49.8766 6.94838 49.3414 7.62631 49.3414 8.66009V12.1173H50.6987V12.115Z" fill="#0C3148"/>
		<path d="M59.1499 15.4821V11.811C59.1499 10.2074 60.2226 9.01367 61.8306 9.01367C63.4386 9.01367 64.421 10.1195 64.5114 11.633C64.5114 11.7389 64.4391 11.811 64.3329 11.811H63.6712C63.5651 11.811 63.4928 11.7569 63.4928 11.633C63.4205 10.6533 62.813 9.9934 61.8306 9.9934C60.794 9.9934 60.1684 10.7411 60.1684 11.811V15.4821C60.1684 16.552 60.8121 17.2997 61.8668 17.2997C62.9214 17.2997 63.4928 16.57 63.5651 15.4821C63.5651 15.3583 63.6374 15.3042 63.7435 15.3042H64.4052C64.5114 15.3042 64.5836 15.3763 64.5836 15.4821C64.4933 17.1038 63.4409 18.2794 61.8668 18.2794C60.2927 18.2794 59.1499 17.0857 59.1499 15.4821Z" fill="#0C3148"/>
		<path d="M66.0107 15.4821V11.811C66.0107 10.2074 67.1016 9.01367 68.7615 9.01367C70.4214 9.01367 71.5122 10.2074 71.5122 11.811V15.4821C71.5122 17.0857 70.4214 18.2794 68.7615 18.2794C67.1016 18.2794 66.0107 17.0857 66.0107 15.4821ZM70.4779 15.4821V11.811C70.4779 10.7231 69.8342 9.97538 68.7615 9.97538C67.6887 9.97538 67.0473 10.7231 67.0473 11.811V15.4821C67.0473 16.57 67.691 17.3177 68.7615 17.3177C69.832 17.3177 70.4779 16.57 70.4779 15.4821Z" fill="#0C3148"/>
		<path d="M73.3008 17.9236V11.811C73.3008 10.2074 74.3735 9.01367 75.9634 9.01367C77.5534 9.01367 78.6261 10.2074 78.6261 11.811V17.9236C78.6261 18.0294 78.5538 18.1015 78.4477 18.1015H77.786C77.6798 18.1015 77.6076 18.0294 77.6076 17.9236V11.811C77.6076 10.7231 76.982 9.97538 75.9634 9.97538C74.9449 9.97538 74.3193 10.7231 74.3193 11.811V17.9236C74.3193 18.0294 74.2471 18.1015 74.1409 18.1015H73.4792C73.3731 18.1015 73.3008 18.0294 73.3008 17.9236Z" fill="#0C3148"/>
		<path d="M80.5913 17.9236V11.811C80.5913 10.2074 81.6641 9.01367 83.254 9.01367C84.8439 9.01367 85.9166 10.2074 85.9166 11.811V17.9236C85.9166 18.0294 85.8444 18.1015 85.7382 18.1015H85.0765C84.9704 18.1015 84.8981 18.0294 84.8981 17.9236V11.811C84.8981 10.7231 84.2725 9.97538 83.254 9.97538C82.2354 9.97538 81.6099 10.7231 81.6099 11.811V17.9236C81.6099 18.0294 81.5376 18.1015 81.4314 18.1015H80.7697C80.6636 18.1015 80.5913 18.0294 80.5913 17.9236Z" fill="#0C3148"/>
		<path d="M87.7026 15.4661V11.849C87.7026 10.2094 88.7573 9.03369 90.4353 9.03369C92.1133 9.03369 93.168 10.2094 93.168 11.7769C93.168 13.2567 92.0772 14.3783 90.4353 14.3783H88.7212V15.4661C88.7212 16.5359 89.3648 17.2837 90.4353 17.2837C91.4358 17.2837 92.0975 16.554 92.1336 15.4661C92.1336 15.3422 92.2059 15.2882 92.312 15.2882H92.9738C93.0799 15.2882 93.1522 15.3603 93.1522 15.4661C93.098 17.1418 92.0094 18.2634 90.4353 18.2634C88.8612 18.2634 87.7026 17.1418 87.7026 15.4661ZM90.4353 13.3986C91.508 13.3986 92.1517 12.7206 92.1517 11.7769C92.1517 10.7432 91.508 10.0134 90.4353 10.0134C89.3626 10.0134 88.7212 10.7432 88.7212 11.849V13.3986H90.4353Z" fill="#0C3148"/>
		<path d="M94.6543 15.4821V11.811C94.6543 10.2074 95.727 9.01367 97.335 9.01367C98.943 9.01367 99.9254 10.1195 100.016 11.633C100.016 11.7389 99.9435 11.811 99.8373 11.811H99.1756C99.0695 11.811 98.9972 11.7569 98.9972 11.633C98.9249 10.6533 98.3174 9.9934 97.335 9.9934C96.2984 9.9934 95.6728 10.7411 95.6728 11.811V15.4821C95.6728 16.552 96.3165 17.2997 97.3712 17.2997C98.4258 17.2997 98.9972 16.57 99.0695 15.4821C99.0695 15.3583 99.1417 15.3042 99.2479 15.3042H99.9096C100.016 15.3042 100.088 15.3763 100.088 15.4821C99.9977 17.1038 98.9453 18.2794 97.3712 18.2794C95.7971 18.2794 94.6543 17.0857 94.6543 15.4821Z" fill="#0C3148"/>
		<path d="M105 17.3356V17.9595C105 18.0654 104.928 18.1374 104.822 18.1374H104.589C102.999 18.1374 102.069 17.0316 102.069 15.1442V10.1554H100.96C100.854 10.1554 100.781 10.0834 100.781 9.97752V9.37167C100.781 9.26581 100.854 9.19374 100.96 9.19374H102.069V6.87617C102.069 6.77031 102.141 6.69824 102.247 6.69824H102.909C103.015 6.69824 103.087 6.77031 103.087 6.87617V9.19374H104.607C104.713 9.19374 104.785 9.26581 104.785 9.37167V9.97752C104.785 10.0834 104.713 10.1554 104.607 10.1554H103.087V15.1442C103.087 16.464 103.604 17.1577 104.589 17.1577H104.822C104.946 17.1577 105 17.2298 105 17.3356Z" fill="#0C3148"/>
		<path d="M22.7085 2.47292L26.0825 8.30175C26.2383 8.57202 26.2383 8.90535 26.0825 9.17788L22.7085 15.0067C22.5526 15.277 22.2613 15.4436 21.9474 15.4436H15.197C14.8831 15.4436 14.594 15.277 14.4359 15.0067L12.3288 11.3671C12.1707 11.0968 11.8817 10.9279 11.5677 10.9301C10.8925 10.9301 10.4724 11.6599 10.8089 12.2432L13.4241 16.759C13.58 17.0292 13.8713 17.1959 14.1852 17.1959H22.9614C23.2753 17.1959 23.5644 17.0292 23.7225 16.759L28.1106 9.18013C28.2664 8.90986 28.2664 8.57652 28.1106 8.304L24.12 1.41211L22.7085 2.47517V2.47292Z" fill="#0C3148"/>
		<path d="M22.9339 6.98181C22.4845 6.98181 22.1187 6.61695 22.1187 6.16875V1.40974C22.1187 0.961545 22.4845 0.59668 22.9339 0.59668C23.3834 0.59668 23.7492 0.961545 23.7492 1.40974V6.16875C23.7492 6.61695 23.3834 6.98181 22.9339 6.98181Z" fill="#0C3148"/>
		<path d="M27.2882 4.17345C27.1775 4.17345 27.0623 4.15093 26.9539 4.10138L22.5997 2.15318C22.1887 1.9685 22.0057 1.48877 22.1909 1.07886C22.3761 0.668949 22.8572 0.486517 23.2682 0.671202L27.6224 2.6194C28.0334 2.80408 28.2164 3.28381 28.0312 3.69372C27.8957 3.99553 27.5976 4.17345 27.2882 4.17345Z" fill="#0C3148"/>
		<path d="M10.6936 7.86487C10.5423 7.86487 10.3887 7.81982 10.2532 7.72297C9.92571 7.48874 9.85118 7.03378 10.0635 6.69144L13.7221 0.855856C13.8599 0.635135 14.1038 0.5 14.3635 0.5H21.0167C21.4233 0.5 21.7756 0.813063 21.7936 1.21847C21.814 1.6509 21.4684 2.00901 21.0371 2.00901H15.1991C14.9371 2.00901 14.6955 2.14414 14.5577 2.36261L11.3327 7.50901C11.1882 7.73874 10.942 7.86487 10.689 7.86487H10.6936Z" fill="#0C3148"/>
		<path d="M5.51947 23.1102L2.14541 17.2814C1.98958 17.0111 1.98958 16.6777 2.14541 16.4052L5.51947 10.5764C5.6753 10.3061 5.96663 10.1395 6.28055 10.1395H13.0309C13.3448 10.1395 13.6339 10.3061 13.792 10.5764L15.8991 14.216C16.0572 14.4863 16.3463 14.6552 16.6602 14.653C17.3354 14.653 17.7555 13.9232 17.419 13.3399L14.8038 8.82414C14.6479 8.55387 14.3566 8.38721 14.0427 8.38721H5.26653C4.95261 8.38721 4.66353 8.55387 4.50544 8.82414L0.117361 16.4052C-0.0384692 16.6755 -0.0384692 17.0088 0.117361 17.2814L4.10796 24.1732L5.51947 23.1102Z" fill="#61BEB2"/>
		<path d="M5.2938 18.6016C5.74322 18.6016 6.10908 18.9664 6.10908 19.4146V24.1736C6.10908 24.6218 5.74322 24.9867 5.2938 24.9867C4.84438 24.9867 4.47852 24.6218 4.47852 24.1736V19.4146C4.47852 18.9664 4.84438 18.6016 5.2938 18.6016Z" fill="#61BEB2"/>
		<path d="M0.941758 21.4121C1.05242 21.4121 1.1676 21.4346 1.276 21.4842L5.63021 23.4324C6.04124 23.6171 6.22417 24.0968 6.03898 24.5067C5.85379 24.9166 5.37275 25.099 4.96172 24.9144L0.607514 22.9662C0.196484 22.7815 0.0135531 22.3018 0.198742 21.8918C0.334247 21.59 0.632356 21.4121 0.941758 21.4121Z" fill="#61BEB2"/>
		<path d="M17.5363 17.7183C17.6876 17.7183 17.8412 17.7633 17.9767 17.8602C18.3041 18.0944 18.3787 18.5493 18.1664 18.8917L14.5055 24.7295C14.3677 24.9502 14.1238 25.0854 13.8641 25.0854H7.21085C6.80434 25.0854 6.45203 24.7723 6.43396 24.3669C6.41363 23.9345 6.75917 23.5764 7.19052 23.5764H13.0285C13.2905 23.5764 13.5321 23.4412 13.6699 23.2228L16.8949 18.0764C17.0394 17.8466 17.2856 17.7205 17.5385 17.7205L17.5363 17.7183Z" fill="#0C3148"/>
	</g>
	<defs>
		<clipPath id="clip0_0_157">
			<rect width="105" height="25" fill="white" transform="translate(0 0.5)"/>
		</clipPath>
	</defs>
</svg>
