<svg xmlns="http://www.w3.org/2000/svg" viewBox="0 0 183.99 118"><path d="M50.66 90.24 25.01 75.58c-.62-.36-.99-1.01-.99-1.72V44.13c0-.71.38-1.36.99-1.72l26.98-15.44S97.1 53.83 131.06.93c-38.73 36.83-71.69 5.83-78-.36-.64-.62-1.62-.75-2.39-.31L.99 28.67c-.62.36-.99 1.01-.99 1.72v57.2c0 .71.38 1.36.99 1.72l49.36 28.23c.92.53 2.09.24 2.67-.64C86.86 66.08 131.98 91 131.98 91c-39.02-35.75-72.66-7.07-78.94-1.05-.64.61-1.61.74-2.38.29Z" fill="#000" opacity="0.7"/><path d="M130.96 1.08C97.12 51.9 52 26.98 52 26.98c39.02 35.75 72.66 7.07 78.94 1.05.64-.61 1.61-.74 2.38-.29l25.65 14.66c.62.36.99 1.01.99 1.72v29.73c0 .71-.38 1.36-.99 1.72l-26.98 15.44s-45-27.01-78.96 25.9c38.73-36.83 71.59-5.69 77.91.51.64.62 1.62.75 2.39.31l49.65-28.4c.62-.36.99-1.01.99-1.72V30.38c0-.71-.38-1.36-.99-1.72L133.63.43c-.92-.53-2.09-.24-2.67.64Z" fill="#000" /></svg>
